<svg xmlns="http://www.w3.org/2000/svg" viewBox="0 0 1024 768" role="img" aria-label="game valorant">
      <defs>
        <linearGradient id="bg" x1="0" y1="0" x2="1" y2="1">
          <stop offset="0" stop-color="#172554"/>
          <stop offset=".55" stop-color="#4f46e5"/>
          <stop offset="1" stop-color="#a5b4fc"/>
        </linearGradient>
        <linearGradient id="accent" x1="0" y1="0" x2="1" y2="1">
          <stop offset="0" stop-color="#a5b4fc"/>
          <stop offset="1" stop-color="#4f46e5"/>
        </linearGradient>
        <filter id="blur"><feGaussianBlur stdDeviation="55"/></filter>
      </defs>
      <rect width="1024" height="768" rx="64" fill="url(#bg)"/>
      <circle cx="120" cy="110" r="180" fill="#a5b4fc" opacity=".18" filter="url(#blur)"/>
      <circle cx="900" cy="650" r="220" fill="#4f46e5" opacity=".2" filter="url(#blur)"/>
      <path d="M0 690c220-100 355-80 510 0s310 100 514 0v78H0z" fill="#020617" opacity=".22"/>
      
    <circle cx="512" cy="350" r="245" fill="#0f172a" opacity=".72"/>
    <path d="M310 485l110-185 90 100 115-165 125 250z" fill="url(#accent)" opacity=".9"/>
    <circle cx="690" cy="190" r="58" fill="#ffffff" opacity=".75"/>
    <path d="M260 610c150-80 355-70 500 0" fill="none" stroke="#ffffff" stroke-width="24" stroke-linecap="round" opacity=".65"/>
    
      <rect x="18" y="18" width="988" height="732" rx="48" fill="none" stroke="#fff" stroke-opacity=".16" stroke-width="4"/>
    </svg>